<svg width="24" height="24" viewBox="0 0 24 24" fill="none" xmlns="http://www.w3.org/2000/svg">
<path d="M17.4497 4.5C15.5053 4.5 13.4113 4.9 11.9655 6C10.5196 4.9 8.42566 4.5 6.48127 4.5C5.03543 4.5 3.49986 4.72 2.21356 5.29C1.48566 5.62 0.99707 6.33 0.99707 7.14V18.42C0.99707 19.72 2.21356 20.68 3.46994 20.36C4.44713 20.11 5.48414 20 6.48127 20C8.03678 20 9.69201 20.26 11.0282 20.92C11.6264 21.22 12.3045 21.22 12.8928 20.92C14.2289 20.25 15.8842 20 17.4397 20C18.4368 20 19.4738 20.11 20.451 20.36C21.7074 20.69 22.9239 19.73 22.9239 18.42V7.14C22.9239 6.33 22.4353 5.62 21.7074 5.29C20.4311 4.72 18.8955 4.5 17.4497 4.5ZM20.9396 17.23C20.9396 17.86 20.3613 18.32 19.743 18.21C18.9952 18.07 18.2174 18.01 17.4497 18.01C15.7545 18.01 13.3116 18.66 11.9655 19.51V8C13.3116 7.15 15.7545 6.5 17.4497 6.5C18.367 6.5 19.2744 6.59 20.1419 6.78C20.6006 6.88 20.9396 7.29 20.9396 7.76V17.23Z" fill="url(#paint0_linear_15_167)"/>
<path d="M13.9399 11.01C13.6208 11.01 13.3316 10.81 13.2319 10.49C13.1023 10.1 13.3217 9.66998 13.7106 9.54998C15.2461 9.04998 17.2304 8.88998 19.0551 9.09998C19.464 9.14998 19.7631 9.51998 19.7133 9.92998C19.6634 10.34 19.2945 10.64 18.8856 10.59C17.2703 10.4 15.5054 10.55 14.1692 10.98C14.0895 10.99 14.0097 11.01 13.9399 11.01Z" fill="url(#paint1_linear_15_167)"/>
<path d="M13.9399 13.67C13.6208 13.67 13.3316 13.47 13.2319 13.15C13.1023 12.76 13.3217 12.33 13.7106 12.21C15.2362 11.71 17.2304 11.55 19.0551 11.76C19.464 11.81 19.7631 12.18 19.7133 12.59C19.6634 13 19.2945 13.3 18.8856 13.25C17.2703 13.06 15.5054 13.21 14.1692 13.64C14.0895 13.66 14.0097 13.67 13.9399 13.67Z" fill="url(#paint2_linear_15_167)"/>
<path d="M13.9399 16.33C13.6208 16.33 13.3316 16.13 13.2319 15.81C13.1023 15.42 13.3217 14.99 13.7106 14.87C15.2362 14.37 17.2304 14.21 19.0551 14.42C19.464 14.47 19.7631 14.84 19.7133 15.25C19.6634 15.66 19.2945 15.95 18.8856 15.91C17.2703 15.72 15.5054 15.87 14.1692 16.3C14.0895 16.32 14.0097 16.33 13.9399 16.33Z" fill="url(#paint3_linear_15_167)"/>
<defs>
<linearGradient id="paint0_linear_15_167" x1="11.9605" y1="4.5" x2="11.9605" y2="21.145" gradientUnits="userSpaceOnUse">
<stop stop-color="#70ACF2"/>
<stop offset="1" stop-color="#064AF9"/>
</linearGradient>
<linearGradient id="paint1_linear_15_167" x1="16.4566" y1="9.00989" x2="16.4566" y2="11.01" gradientUnits="userSpaceOnUse">
<stop stop-color="#70ACF2"/>
<stop offset="1" stop-color="#064AF9"/>
</linearGradient>
<linearGradient id="paint2_linear_15_167" x1="16.4566" y1="11.6699" x2="16.4566" y2="13.67" gradientUnits="userSpaceOnUse">
<stop stop-color="#70ACF2"/>
<stop offset="1" stop-color="#064AF9"/>
</linearGradient>
<linearGradient id="paint3_linear_15_167" x1="16.4566" y1="14.33" x2="16.4566" y2="16.33" gradientUnits="userSpaceOnUse">
<stop stop-color="#70ACF2"/>
<stop offset="1" stop-color="#064AF9"/>
</linearGradient>
</defs>
</svg>
