<svg width="317" height="52" viewBox="0 0 317 52" fill="none" xmlns="http://www.w3.org/2000/svg">
<path d="M13.8241 6.91998C16.3201 6.91998 18.4801 7.27198 20.3041 7.97598C22.1601 8.67998 23.8401 9.75198 25.3441 11.192L21.6961 15.464C19.4241 13.608 16.9921 12.68 14.4001 12.68C13.0241 12.68 11.9361 12.968 11.1361 13.544C10.3361 14.088 9.93613 14.888 9.93613 15.944C9.93613 16.68 10.1121 17.288 10.4641 17.768C10.8161 18.216 11.4401 18.648 12.3361 19.064C13.2321 19.48 14.5761 19.976 16.3681 20.552C19.7601 21.64 22.2561 22.984 23.8561 24.584C25.4561 26.152 26.2561 28.392 26.2561 31.304C26.2561 33.384 25.7281 35.224 24.6721 36.824C23.6161 38.392 22.0961 39.624 20.1121 40.52C18.1281 41.384 15.7761 41.816 13.0561 41.816C10.3361 41.816 7.92013 41.384 5.80813 40.52C3.72813 39.656 1.93613 38.504 0.432129 37.064L4.41613 32.696C5.69613 33.784 7.00813 34.6 8.35213 35.144C9.72813 35.688 11.2161 35.96 12.8161 35.96C14.4481 35.96 15.7281 35.608 16.6561 34.904C17.6161 34.168 18.0961 33.16 18.0961 31.88C18.0961 31.048 17.9201 30.36 17.5681 29.816C17.2161 29.24 16.6081 28.728 15.7441 28.28C14.8801 27.832 13.6321 27.352 12.0001 26.84C8.32013 25.72 5.69613 24.344 4.12813 22.712C2.59213 21.08 1.82413 19.016 1.82413 16.52C1.82413 14.6 2.33613 12.92 3.36013 11.48C4.38413 10.008 5.80813 8.88798 7.63213 8.11998C9.45613 7.31998 11.5201 6.91998 13.8241 6.91998Z" fill="#141414"/>
<path d="M52.6689 27.752C52.6689 28.808 52.6209 29.72 52.5249 30.488H36.7329C36.9889 32.632 37.5969 34.136 38.5569 35C39.5169 35.864 40.8449 36.296 42.5409 36.296C43.5649 36.296 44.5569 36.12 45.5169 35.768C46.4769 35.384 47.5169 34.808 48.6369 34.04L51.7569 38.264C48.7809 40.632 45.4689 41.816 41.8209 41.816C37.6929 41.816 34.5249 40.6 32.3169 38.168C30.1089 35.736 29.0049 32.472 29.0049 28.376C29.0049 25.784 29.4689 23.464 30.3969 21.416C31.3249 19.336 32.6849 17.704 34.4769 16.52C36.2689 15.304 38.4129 14.696 40.9089 14.696C44.5889 14.696 47.4689 15.848 49.5489 18.152C51.6289 20.456 52.6689 23.656 52.6689 27.752ZM45.2289 25.592C45.1649 21.688 43.7889 19.736 41.1009 19.736C39.7889 19.736 38.7649 20.216 38.0289 21.176C37.3249 22.136 36.8929 23.72 36.7329 25.928H45.2289V25.592ZM44.5089 0.919983L47.4849 6.58398L36.1569 11.144L34.0449 7.25598L44.5089 0.919983Z" fill="#141414"/>
<path d="M70.7533 14.792C71.6813 14.792 72.5293 14.904 73.2973 15.128L72.0973 22.472C71.1373 22.248 70.3693 22.136 69.7933 22.136C68.2893 22.136 67.1373 22.664 66.3373 23.72C65.5693 24.744 64.9613 26.296 64.5133 28.376V41H56.9293V15.512H63.5533L64.1773 20.456C64.7533 18.696 65.6173 17.32 66.7693 16.328C67.9533 15.304 69.2813 14.792 70.7533 14.792Z" fill="#141414"/>
<path d="M99.1044 17C97.4404 17.672 94.9924 18.008 91.7604 18.008C93.4244 18.712 94.6404 19.576 95.4084 20.6C96.1764 21.624 96.5604 22.952 96.5604 24.584C96.5604 26.216 96.1284 27.688 95.2644 29C94.4004 30.28 93.1524 31.288 91.5204 32.024C89.9204 32.76 88.0324 33.128 85.8564 33.128C84.8324 33.128 83.8564 33.032 82.9284 32.84C82.6724 32.968 82.4644 33.176 82.3044 33.464C82.1764 33.72 82.1124 33.992 82.1124 34.28C82.1124 34.76 82.2884 35.144 82.6404 35.432C83.0244 35.688 83.7764 35.816 84.8964 35.816H88.7364C90.6884 35.816 92.4004 36.136 93.8724 36.776C95.3444 37.416 96.4804 38.296 97.2804 39.416C98.0804 40.536 98.4804 41.8 98.4804 43.208C98.4804 45.864 97.3284 47.928 95.0244 49.4C92.7524 50.904 89.4564 51.656 85.1364 51.656C82.0324 51.656 79.5844 51.32 77.7924 50.648C76.0004 50.008 74.7364 49.096 74.0004 47.912C73.2964 46.728 72.9444 45.24 72.9444 43.448H79.7604C79.7604 44.216 79.9044 44.824 80.1924 45.272C80.5124 45.72 81.0724 46.056 81.8724 46.28C82.6724 46.504 83.8244 46.616 85.3284 46.616C87.4084 46.616 88.8484 46.36 89.6484 45.848C90.4484 45.368 90.8484 44.664 90.8484 43.736C90.8484 42.968 90.5444 42.36 89.9364 41.912C89.3284 41.464 88.4164 41.24 87.2004 41.24H83.5044C80.8804 41.24 78.9124 40.776 77.6004 39.848C76.3204 38.888 75.6804 37.672 75.6804 36.2C75.6804 35.272 75.9524 34.376 76.4964 33.512C77.0404 32.616 77.7764 31.88 78.7044 31.304C77.1044 30.44 75.9364 29.432 75.2004 28.28C74.4964 27.096 74.1444 25.672 74.1444 24.008C74.1444 21.16 75.1684 18.904 77.2164 17.24C79.2644 15.544 81.9684 14.696 85.3284 14.696C87.8884 14.76 90.0484 14.504 91.8084 13.928C93.6004 13.352 95.4404 12.504 97.3284 11.384L99.1044 17ZM85.5204 19.688C84.3364 19.688 83.3924 20.072 82.6884 20.84C82.0164 21.576 81.6804 22.6 81.6804 23.912C81.6804 25.288 82.0164 26.36 82.6884 27.128C83.3924 27.864 84.3364 28.232 85.5204 28.232C86.7684 28.232 87.7124 27.864 88.3524 27.128C89.0244 26.392 89.3604 25.288 89.3604 23.816C89.3604 21.064 88.0804 19.688 85.5204 19.688Z" fill="#141414"/>
<path d="M109.654 15.512V41H102.07V15.512H109.654ZM105.814 2.07198C107.126 2.07198 108.198 2.48798 109.03 3.31998C109.894 4.11998 110.326 5.14398 110.326 6.39198C110.326 7.63998 109.894 8.67998 109.03 9.51198C108.198 10.312 107.126 10.712 105.814 10.712C104.502 10.712 103.43 10.312 102.598 9.51198C101.766 8.67998 101.35 7.63998 101.35 6.39198C101.35 5.14398 101.766 4.11998 102.598 3.31998C103.43 2.48798 104.502 2.07198 105.814 2.07198Z" fill="#141414"/>
<path d="M126.657 14.696C130.561 14.696 133.617 15.896 135.825 18.296C138.033 20.664 139.137 23.992 139.137 28.28C139.137 31 138.625 33.384 137.601 35.432C136.609 37.448 135.169 39.016 133.281 40.136C131.425 41.256 129.217 41.816 126.657 41.816C122.785 41.816 119.729 40.632 117.489 38.264C115.281 35.864 114.177 32.52 114.177 28.232C114.177 25.512 114.673 23.144 115.665 21.128C116.689 19.08 118.129 17.496 119.985 16.376C121.873 15.256 124.097 14.696 126.657 14.696ZM126.657 20.264C125.121 20.264 123.969 20.92 123.201 22.232C122.433 23.512 122.049 25.512 122.049 28.232C122.049 31.016 122.417 33.048 123.153 34.328C123.921 35.608 125.089 36.248 126.657 36.248C128.193 36.248 129.345 35.608 130.113 34.328C130.881 33.016 131.265 31 131.265 28.28C131.265 25.496 130.881 23.464 130.113 22.184C129.377 20.904 128.225 20.264 126.657 20.264Z" fill="#141414"/>
<path d="M172.703 41L170.975 33.848H161.279L159.599 41H151.439L161.471 7.73598H171.023L181.055 41H172.703ZM162.623 28.136H169.631L166.127 13.448L162.623 28.136Z" fill="#141414"/>
<path d="M190.119 41.816C187.911 41.816 186.183 41.192 184.935 39.944C183.719 38.664 183.111 36.856 183.111 34.52V5.38398L190.695 4.56798V34.232C190.695 35.288 191.127 35.816 191.991 35.816C192.439 35.816 192.855 35.736 193.239 35.576L194.727 40.952C193.351 41.528 191.815 41.816 190.119 41.816Z" fill="#141414"/>
<path d="M219.591 27.752C219.591 28.808 219.543 29.72 219.447 30.488H203.655C203.911 32.632 204.519 34.136 205.479 35C206.439 35.864 207.767 36.296 209.463 36.296C210.487 36.296 211.479 36.12 212.439 35.768C213.399 35.384 214.439 34.808 215.559 34.04L218.679 38.264C215.703 40.632 212.391 41.816 208.743 41.816C204.615 41.816 201.447 40.6 199.239 38.168C197.031 35.736 195.927 32.472 195.927 28.376C195.927 25.784 196.391 23.464 197.319 21.416C198.247 19.336 199.607 17.704 201.399 16.52C203.191 15.304 205.335 14.696 207.831 14.696C211.511 14.696 214.391 15.848 216.471 18.152C218.551 20.456 219.591 23.656 219.591 27.752ZM212.151 25.592C212.087 21.688 210.711 19.736 208.023 19.736C206.711 19.736 205.687 20.216 204.951 21.176C204.247 22.136 203.815 23.72 203.655 25.928H212.151V25.592Z" fill="#141414"/>
<path d="M238.779 14.696C240.987 14.696 242.715 15.368 243.963 16.712C245.211 18.056 245.835 19.944 245.835 22.376V41H238.251V23.672C238.251 22.392 238.043 21.512 237.627 21.032C237.243 20.52 236.651 20.264 235.851 20.264C234.315 20.264 232.843 21.368 231.435 23.576V41H223.851V15.512H230.475L231.003 18.536C232.091 17.256 233.259 16.296 234.507 15.656C235.787 15.016 237.211 14.696 238.779 14.696Z" fill="#141414"/>
<path d="M262.594 14.696C264.354 14.696 265.938 14.952 267.346 15.464C268.754 15.976 270.082 16.76 271.33 17.816L268.066 22.328C266.466 21.112 264.85 20.504 263.218 20.504C261.522 20.504 260.242 21.128 259.378 22.376C258.514 23.624 258.082 25.64 258.082 28.424C258.082 31.112 258.514 33.016 259.378 34.136C260.242 35.256 261.49 35.816 263.122 35.816C263.986 35.816 264.77 35.688 265.474 35.432C266.178 35.144 267.026 34.696 268.018 34.088L271.33 38.792C268.802 40.808 265.938 41.816 262.738 41.816C260.146 41.816 257.906 41.272 256.018 40.184C254.13 39.064 252.674 37.512 251.65 35.528C250.626 33.512 250.114 31.16 250.114 28.472C250.114 25.784 250.626 23.4 251.65 21.32C252.674 19.24 254.13 17.624 256.018 16.472C257.906 15.288 260.098 14.696 262.594 14.696Z" fill="#141414"/>
<path d="M294.31 33.608C294.31 34.568 294.438 35.272 294.694 35.72C294.982 36.168 295.43 36.504 296.038 36.728L294.454 41.672C292.886 41.544 291.606 41.208 290.614 40.664C289.622 40.088 288.854 39.192 288.31 37.976C286.646 40.536 284.086 41.816 280.63 41.816C278.102 41.816 276.086 41.08 274.582 39.608C273.078 38.136 272.326 36.216 272.326 33.848C272.326 31.064 273.35 28.936 275.398 27.464C277.446 25.992 280.406 25.256 284.278 25.256H286.87V24.152C286.87 22.648 286.55 21.624 285.91 21.08C285.27 20.504 284.15 20.216 282.55 20.216C281.718 20.216 280.71 20.344 279.526 20.6C278.342 20.824 277.126 21.144 275.878 21.56L274.15 16.568C275.75 15.96 277.382 15.496 279.046 15.176C280.742 14.856 282.31 14.696 283.75 14.696C287.398 14.696 290.07 15.448 291.766 16.952C293.462 18.456 294.31 20.712 294.31 23.72V33.608ZM282.838 36.392C284.566 36.392 285.91 35.576 286.87 33.944V29.432H284.998C283.27 29.432 281.974 29.736 281.11 30.344C280.278 30.952 279.862 31.896 279.862 33.176C279.862 34.2 280.118 35 280.63 35.576C281.174 36.12 281.91 36.392 282.838 36.392Z" fill="#141414"/>
<path d="M314.175 14.792C315.103 14.792 315.951 14.904 316.719 15.128L315.519 22.472C314.559 22.248 313.791 22.136 313.215 22.136C311.711 22.136 310.559 22.664 309.759 23.72C308.991 24.744 308.383 26.296 307.935 28.376V41H300.351V15.512H306.975L307.599 20.456C308.175 18.696 309.039 17.32 310.191 16.328C311.375 15.304 312.703 14.792 314.175 14.792Z" fill="#141414"/>
</svg>
